<?xml version="1.0" encoding="utf-8"?>
<!-- Generator: Adobe Illustrator 18.1.1, SVG Export Plug-In . SVG Version: 6.00 Build 0)  -->
<svg version="1.1" id="Capa_1" xmlns="http://www.w3.org/2000/svg" xmlns:xlink="http://www.w3.org/1999/xlink" x="0px" y="0px"
	 viewBox="-97.5 160.2 38 34.7" enable-background="new -97.5 160.2 38 34.7" xml:space="preserve">
<g>
	<path id="LinkedIn" fill="#FFFFFF" d="M-62.7,180.7v12h-7v-11.2c0-2.8-1-4.7-3.5-4.7c-1.9,0-3.1,1.3-3.6,2.5
		c-0.2,0.4-0.2,1.1-0.2,1.7v11.7h-7c0,0,0.1-19,0-20.9h7v3c0,0,0,0,0,0.1h0v-0.1c0.9-1.4,2.6-3.5,6.3-3.5
		C-66.2,171.3-62.7,174.3-62.7,180.7z M-91.2,161.7c-2.4,0-3.9,1.6-3.9,3.6c0,2,1.5,3.6,3.8,3.6h0c2.4,0,3.9-1.6,3.9-3.6
		C-87.4,163.2-88.9,161.7-91.2,161.7z M-94.8,192.7h7v-20.9h-7V192.7z"/>
</g>
</svg>
