<?xml version="1.0" encoding="utf-8"?>
<!-- Generator: Adobe Illustrator 18.1.1, SVG Export Plug-In . SVG Version: 6.00 Build 0)  -->
<svg version="1.1" xmlns="http://www.w3.org/2000/svg" xmlns:xlink="http://www.w3.org/1999/xlink" x="0px" y="0px"
	 viewBox="0 0 159.9 53.7" enable-background="new 0 0 159.9 53.7" xml:space="preserve">
<g id="Layer_2">
</g>
<g id="Layer_3">
	<g>
		
			<rect x="8.4" y="8.4" transform="matrix(0.7071 -0.7071 0.7071 0.7071 -11.1299 26.8701)" fill="#229077" stroke="#229077" stroke-miterlimit="10" width="37" height="37"/>
		
			<rect x="15.5" y="15.5" transform="matrix(0.7071 -0.7071 0.7071 0.7071 -11.1299 26.8701)" fill="#FFFFFF" width="22.8" height="22.8"/>
	</g>
	<g>
		
			<rect x="61.4" y="8.4" transform="matrix(0.7071 -0.7071 0.7071 0.7071 4.3934 64.3467)" fill="#229077" stroke="#229077" stroke-miterlimit="10" width="37" height="37"/>
		
			<rect x="68.5" y="15.5" transform="matrix(0.7071 -0.7071 0.7071 0.7071 4.3934 64.3467)" fill="#FFFFFF" width="22.8" height="22.8"/>
	</g>
	<g>
		
			<rect x="114.5" y="8.4" transform="matrix(0.7071 -0.7071 0.7071 0.7071 19.9656 101.9412)" fill="#229077" stroke="#229077" stroke-miterlimit="10" width="37" height="37"/>
		
			<rect x="121.7" y="15.5" transform="matrix(0.7071 -0.7071 0.7071 0.7071 19.9656 101.9412)" fill="#FFFFFF" width="22.8" height="22.8"/>
	</g>
</g>
</svg>
