<?xml version="1.0" encoding="utf-8"?>
<!-- Generator: Adobe Illustrator 18.1.1, SVG Export Plug-In . SVG Version: 6.00 Build 0)  -->
<svg version="1.1" id="Capa_1" xmlns="http://www.w3.org/2000/svg" xmlns:xlink="http://www.w3.org/1999/xlink" x="0px" y="0px"
	 viewBox="-98.8 158.8 39 37.3" enable-background="new -98.8 158.8 39 37.3" xml:space="preserve">
<g>
	<g>
		<path fill="#FFFFFF" d="M-59.6,164.3c-1.4,0.7-2.9,1.2-4.5,1.4c1.6-1.1,2.8-2.8,3.4-4.9c-1.5,1-3.2,1.7-4.9,2.1
			c-1.4-1.7-3.4-2.8-5.7-2.8c-4.3,0-7.8,3.9-7.8,8.8c0,0.7,0.1,1.4,0.2,2c-6.5-0.4-12.2-3.9-16.1-9.2c-0.7,1.3-1.1,2.8-1.1,4.4
			c0,3,1.4,5.7,3.5,7.3c-1.3,0-2.5-0.4-3.5-1.1v0.1c0,4.2,2.7,7.8,6.2,8.6c-0.7,0.2-1.3,0.3-2.1,0.3c-0.5,0-1-0.1-1.5-0.2
			c1,3.5,3.9,6,7.3,6.1c-2.7,2.4-6,3.7-9.7,3.7c-0.6,0-1.2,0-1.9-0.1c3.4,2.5,7.5,3.9,11.9,3.9c14.3,0,22.2-13.4,22.2-25l0-1.1
			C-61.9,167.6-60.6,166.1-59.6,164.3z"/>
	</g>
</g>
</svg>
