<svg xmlns="http://www.w3.org/2000/svg" width="512" height="512" viewBox="0 0 44.238 44.238"><path d="M15.533 29.455a.75.75 0 0 1-.53-1.282l13.17-13.17a.75.75 0 0 1 1.062 1.06L16.063 29.235a.744.744 0 0 1-.53.22z" fill="#FFF"/><path d="M28.704 29.455a.744.744 0 0 1-.53-.22l-13.172-13.17a.75.75 0 0 1 1.06-1.062l13.172 13.17a.75.75 0 0 1-.53 1.282z" fill="#FFF"/><path d="M22.12 44.237C9.92 44.237 0 34.315 0 22.12 0 9.924 9.922 0 22.12 0s22.118 9.923 22.118 22.12-9.924 22.117-22.12 22.117zm0-42.736C10.75 1.5 1.5 10.75 1.5 22.12s9.25 20.62 20.62 20.62 20.618-9.25 20.618-20.62S33.488 1.5 22.118 1.5z" fill="#FFF"/></svg>