<svg xmlns="http://www.w3.org/2000/svg" viewBox="-128 129.4 42.6 42.6"><path fill="#FFF" d="M-94.9 150.3c3.3.3 6.7.6 9.4 1.4-2.7-.4-6-1.1-9.4-1.2-1.4 2.8-4.2 4.1-8.1 4.4.4.9 1.2 1.3 1.4 2.7.3 2.2-.5 5.4.3 6.8.4.7.9.7 1.3 1.3-1 1.1-3.3-.1-3.6-1.3-.5-2 .7-5.2-.6-6.6.1 2.2-.5 5.3.1 7.3.2.8.9 1.1.8 1.8-4.4.4-2.6-5.7-3.3-9.4-.7 0-.4 1-.4 1.4 0 3.6.7 8.4-3.1 8-.1-.7.5-1 .8-1.7.7-2-.1-5 .2-7.4-1.5 1.1.2 5-.8 6.9-.5 1.1-2.2 1.6-3.5 1.1.2-.8 1-.7 1.4-1.5.5-1.1 0-2.7.2-4.3-2.7.5-4.8-.1-5.8-1.8-.5-.8-.6-1.7-1.1-2.3-.6-.7-1.4-.8-1.7-1.7 3.4-.8 3.5 3.5 6.5 3.6.9 0 1.4-.3 2.3-.5.2-1.1.8-1.9 1.5-2.4-3.8-.5-6.8-1.7-8.3-4.5-3.4.2-6.5.6-9.4 1.3 2.6-1 5.9-1.3 9.3-1.4-.2-1.2-2-.9-3.1-.8-2.1.1-4.7.3-6.3.7 2.4-.8 5.7-.7 8.9-.8-1-3.1-.6-8 1.5-9.8-.6-1.5-.4-4.1.4-5.2 2.4.1 3.9 1.2 5.4 2.2 1.9-.5 3.8-.8 6.4-.7 1.1.1 2.2.5 3 .5.8-.1 1.7-1 2.4-1.3 1-.4 1.9-.6 3-.7.6 1.3.9 3.3.4 4.9 2.2 1.9 2.9 6.4 1.9 10.1 3.1.2 6.8-.1 9.2.8-2.2-.3-5.3-.9-8.2-.7-.6.1-1.4.1-1.3.8z"/></svg>