<svg xmlns="http://www.w3.org/2000/svg" viewBox="114.4 1.8 271.2 296.4"><g fill="#FFF"><path d="M226.6 112.8c6.1 0 9.1 2.9 9.1 8.8 0 3-.8 5.5-2.5 7.4-2.8 4.2-7.4 7.8-13.7 10.9-6.3 3.1-11.6 4.8-16 5.1-1.6.1-2.4-.3-2.5-1.4-.1-.4 0-.7.4-.8.4-.1.7-.2.9-.2 2.6-.2 5.9-1.5 10-3.7 7.5-4.1 13.1-8.2 16.5-12.5 1.5-2 2.2-4 2.2-5.8s-.9-2.8-2.7-2.8c-1.5 0-3.4.6-5.9 1.9-5.3 2.5-10.9 6.8-16.7 12.9-5.9 6.1-9.7 12.1-11.5 18-.6 1.8-.8 3.6-.8 5.3 0 1.7.7 3.4 2.2 5 1.5 1.6 3.7 2.4 6.8 2.4 3.4 0 7.3-.9 11.6-2.7 12.7-5.2 22.5-13 29.4-23.5.7-.9 1.3-1.1 1.9-.5.4.2.7.5.7.8 0 .3-.2.7-.5 1.2-3.4 5.6-7.7 10.6-12.8 15-10 8.6-19.8 12.8-29.2 12.8-8.1 0-13.8-2.4-17.1-7.3-1.2-1.9-1.9-4.2-1.9-6.9s.7-5.9 2.2-9.6c2.8-6.4 8.8-13 18.1-19.8 9-6.6 16.4-10 21.8-10z"/><path d="M237 226.3c-.9 0-2-.2-3.4-.5-5.7-1.5-8.6-4.5-8.6-9 0-4.6 3-10.3 8.9-17.1 5.9-6.9 18.4-16.6 37.4-29.2 8.1-16.5 13.7-29.7 16.9-39.3-6.3 7.7-10.8 12.9-13.5 15.9-10.1 11.3-18.3 16.9-24.5 16.9-1.8 0-3.7-.5-5.8-1.6-2.1-1.1-3.9-2.6-5.3-4.6-1.5-2-2.2-4.1-2.2-6.3 0-6 4.2-12.7 12.5-20.1 5-4.5 10.1-8.3 15.5-11.5 5.4-3.1 9.7-5.1 12.8-5.9 3.1-.8 6.2-1.2 9.1-1.2 2.9 0 5.5.8 7.8 2.4 2.2 1.6 3.4 3.2 3.4 4.7 0 .9-.5 1.2-1.4.8-1.2-2.1-4-3.2-8.2-3.2-4.2 0-9 1.4-14.3 4.1-5.3 2.8-10.2 6-14.4 9.8-4.3 3.8-7.9 8-10.9 12.8-3 4.8-4.5 8.3-4.5 10.6 0 3.9 1.1 5.9 3.4 5.9 3.1 0 8-2.6 14.5-7.8 9.7-7.5 19-16.7 27.9-27.5 1.5-2.1 4.5-2.1 9.1.2 1.8.9 2.5 1.7 2.2 2.4-1.5 3.3-4.1 8.9-8 17-3.9 8-6.8 14.1-8.7 18.1 2.6-1.4 7-4.8 13.3-10.2 6.2-5.5 11.7-10.9 16.5-16.5 2.5-2.9 3.7-3.4 3.7-1.4 0 2.8-6.8 10.2-20.3 22.3-7.8 7-13.3 11.4-16.5 13.2-9.6 19.7-16 32.1-19.2 37.1-8.6 12.4-17 18.7-25.2 18.7zm31.1-49.5c-13.5 10.1-23.2 18.1-29 24.1s-8.8 11.5-8.8 16.6c0 1.6.5 2.7 1.5 3.4 1 .7 2.1 1 3.2 1s2.8-.8 4.9-2.5c2.1-1.7 4-3.3 5.5-5 1.5-1.6 2.8-3.2 4-4.6 1.1-1.4 2.4-3.2 3.8-5.4s2.5-3.9 3.3-5.1c.8-1.2 1.9-3.2 3.3-5.8 1.4-2.6 2.4-4.4 2.9-5.4s1.5-2.9 2.9-5.8c1.3-3 2.2-4.8 2.5-5.5z"/></g><path fill="#FFF" stroke="#FFF" stroke-width="2" stroke-miterlimit="10" d="M249.4 298.2l-135-135 135-135 135 135-135 135zm-133.6-135l133.6 133.6L383 163.2 249.4 29.6 115.8 163.2z"/><path fill="none" stroke="#FFF" stroke-width="2" stroke-miterlimit="10" d="M250.5 271.8l-135-135 135-135 135 135-135 135zM117 136.8l133.6 133.6 133.6-133.6L250.5 3.2 117 136.8z"/></svg>