<svg xmlns="http://www.w3.org/2000/svg" width="512" height="512" viewBox="0 0 456.814 456.814"><g fill="#78C244"><path d="M441.11 252.677c10.468-11.99 15.704-26.17 15.704-42.54 0-14.846-5.432-27.692-16.26-38.547-10.848-10.854-23.694-16.278-38.54-16.278h-79.082c.76-2.664 1.522-4.948 2.282-6.85.753-1.904 1.81-4 3.138-6.284 1.328-2.285 2.283-4 2.852-5.14 3.425-6.467 6.047-11.8 7.857-15.984 1.808-4.192 3.607-9.9 5.42-17.133 1.812-7.228 2.712-14.464 2.712-21.697 0-4.566-.055-8.28-.145-11.134-.09-2.856-.574-7.14-1.423-12.85-.862-5.71-2.006-10.468-3.43-14.273-1.43-3.806-3.716-8.092-6.85-12.847-3.143-4.764-6.948-8.613-11.425-11.565-4.477-2.95-10.185-5.424-17.132-7.42-6.954-2-14.8-3-23.562-3-4.948 0-9.227 1.81-12.847 5.427-3.807 3.806-7.048 8.564-9.71 14.272-2.666 5.71-4.523 10.66-5.57 14.85-1.048 4.186-2.24 9.993-3.566 17.414-1.72 7.998-2.998 13.752-3.86 17.273-.855 3.522-2.525 8.137-4.997 13.846-2.477 5.713-5.424 10.278-8.85 13.706-6.28 6.28-15.892 17.7-28.838 34.26-9.33 12.18-18.94 23.694-28.838 34.544-9.9 10.852-17.13 16.466-21.698 16.847-4.755.38-8.848 2.33-12.275 5.854-3.428 3.52-5.14 7.662-5.14 12.42v183.01c0 4.948 1.806 9.18 5.423 12.702 3.615 3.524 7.898 5.38 12.847 5.57 6.66.19 21.698 4.374 45.11 12.566 14.655 4.94 26.12 8.706 34.4 11.272 8.28 2.566 19.85 5.328 34.685 8.282 14.85 2.95 28.55 4.428 41.11 4.428h36.831c25.32-.38 44.06-7.806 56.247-22.268 11.036-13.135 15.697-30.36 13.99-51.68 7.422-7.04 12.565-15.983 15.416-26.835 3.23-11.604 3.23-22.74 0-33.397 8.753-11.61 12.846-24.65 12.27-39.115.025-6.097-1.4-13.328-4.26-21.706zM100.5 191.864H18.276c-4.952 0-9.235 1.81-12.85 5.426C1.808 200.905 0 205.188 0 210.137V392.87c0 4.94 1.81 9.226 5.426 12.846 3.62 3.61 7.902 5.42 12.85 5.42H100.5c4.948 0 9.23-1.81 12.847-5.42 3.616-3.62 5.424-7.904 5.424-12.847V210.136c0-4.95-1.808-9.23-5.423-12.847-3.617-3.618-7.898-5.426-12.847-5.426zM67.665 369.308c-3.616 3.52-7.898 5.28-12.847 5.28-5.14 0-9.47-1.76-12.99-5.28-3.52-3.52-5.28-7.85-5.28-12.99 0-4.948 1.758-9.232 5.28-12.847 3.52-3.616 7.85-5.427 12.99-5.427 4.95 0 9.23 1.81 12.847 5.428 3.617 3.615 5.426 7.9 5.426 12.848 0 5.14-1.804 9.468-5.425 12.99z"/></g></svg>