<svg xmlns="http://www.w3.org/2000/svg" viewBox="-98.8 158.8 39 37.3"><path fill="#FFF" d="M-59.6 164.3c-1.4.7-2.9 1.2-4.5 1.4 1.6-1.1 2.8-2.8 3.4-4.9-1.5 1-3.2 1.7-4.9 2.1-1.4-1.7-3.4-2.8-5.7-2.8-4.3 0-7.8 3.9-7.8 8.8 0 .7.1 1.4.2 2-6.5-.4-12.2-3.9-16.1-9.2-.7 1.3-1.1 2.8-1.1 4.4 0 3 1.4 5.7 3.5 7.3-1.3 0-2.5-.4-3.5-1.1v.1c0 4.2 2.7 7.8 6.2 8.6-.7.2-1.3.3-2.1.3-.5 0-1-.1-1.5-.2 1 3.5 3.9 6 7.3 6.1-2.7 2.4-6 3.7-9.7 3.7-.6 0-1.2 0-1.9-.1 3.4 2.5 7.5 3.9 11.9 3.9 14.3 0 22.2-13.4 22.2-25v-1.1c1.8-1 3.1-2.5 4.1-4.3z"/></svg>